G04 #@! TF.FileFunction,Copper,L1,Top,Signal*
%FSLAX46Y46*%
G04 Gerber Fmt 4.6, Leading zero omitted, Abs format (unit mm)*
G04 Created by KiCad (PCBNEW 4.0.7) date Thu Feb 28 13:47:34 2019*
%MOMM*%
%LPD*%
G01*
G04 APERTURE LIST*
%ADD10C,0.100000*%
%ADD11R,1.800000X1.800000*%
%ADD12C,1.800000*%
%ADD13R,1.700000X1.700000*%
%ADD14O,1.700000X1.700000*%
%ADD15C,2.400000*%
%ADD16O,2.400000X2.400000*%
%ADD17C,0.600000*%
%ADD18C,0.800000*%
G04 APERTURE END LIST*
D10*
D11*
X278500000Y-19000000D03*
D12*
X275960000Y-19000000D03*
D11*
X278500000Y-26000000D03*
D12*
X275960000Y-26000000D03*
D11*
X278500000Y-33000000D03*
D12*
X275960000Y-33000000D03*
D11*
X278500000Y-40000000D03*
D12*
X275960000Y-40000000D03*
D13*
X267500000Y-50000000D03*
D14*
X264960000Y-50000000D03*
X262420000Y-50000000D03*
X259880000Y-50000000D03*
X257340000Y-50000000D03*
X254800000Y-50000000D03*
X252260000Y-50000000D03*
D13*
X238500000Y-50000000D03*
D14*
X241040000Y-50000000D03*
X243580000Y-50000000D03*
D13*
X238500000Y-34000000D03*
D14*
X238500000Y-36540000D03*
X238500000Y-39080000D03*
D13*
X238500000Y-19000000D03*
D14*
X238500000Y-21540000D03*
X238500000Y-24080000D03*
D15*
X247500000Y-19000000D03*
D16*
X267820000Y-19000000D03*
D15*
X247500000Y-26000000D03*
D16*
X267820000Y-26000000D03*
D15*
X247500000Y-33000000D03*
D16*
X267820000Y-33000000D03*
D15*
X247500000Y-40000000D03*
D16*
X267820000Y-40000000D03*
D17*
X231500000Y-34000000D03*
X238500000Y-29500000D03*
D18*
X238500000Y-34000000D02*
X231500000Y-34000000D01*
X247500000Y-33000000D02*
X247500000Y-30000000D01*
X247000000Y-29500000D02*
X238500000Y-29500000D01*
X247500000Y-30000000D02*
X247000000Y-29500000D01*
M02*
