G04 #@! TF.FileFunction,Copper,L2,Bot,Signal*
%FSLAX46Y46*%
G04 Gerber Fmt 4.6, Leading zero omitted, Abs format (unit mm)*
G04 Created by KiCad (PCBNEW 4.0.7) date Thu Feb 28 13:47:34 2019*
%MOMM*%
%LPD*%
G01*
G04 APERTURE LIST*
%ADD10C,0.100000*%
%ADD11R,1.800000X1.800000*%
%ADD12C,1.800000*%
%ADD13R,1.700000X1.700000*%
%ADD14O,1.700000X1.700000*%
%ADD15C,2.400000*%
%ADD16O,2.400000X2.400000*%
%ADD17C,0.600000*%
%ADD18C,0.800000*%
G04 APERTURE END LIST*
D10*
D11*
X278500000Y-19000000D03*
D12*
X275960000Y-19000000D03*
D11*
X278500000Y-26000000D03*
D12*
X275960000Y-26000000D03*
D11*
X278500000Y-33000000D03*
D12*
X275960000Y-33000000D03*
D11*
X278500000Y-40000000D03*
D12*
X275960000Y-40000000D03*
D13*
X267500000Y-50000000D03*
D14*
X264960000Y-50000000D03*
X262420000Y-50000000D03*
X259880000Y-50000000D03*
X257340000Y-50000000D03*
X254800000Y-50000000D03*
X252260000Y-50000000D03*
D13*
X238500000Y-50000000D03*
D14*
X241040000Y-50000000D03*
X243580000Y-50000000D03*
D13*
X238500000Y-34000000D03*
D14*
X238500000Y-36540000D03*
X238500000Y-39080000D03*
D13*
X238500000Y-19000000D03*
D14*
X238500000Y-21540000D03*
X238500000Y-24080000D03*
D15*
X247500000Y-19000000D03*
D16*
X267820000Y-19000000D03*
D15*
X247500000Y-26000000D03*
D16*
X267820000Y-26000000D03*
D15*
X247500000Y-33000000D03*
D16*
X267820000Y-33000000D03*
D15*
X247500000Y-40000000D03*
D16*
X267820000Y-40000000D03*
D17*
X231500000Y-34000000D03*
X238500000Y-29500000D03*
D18*
X232000000Y-19000000D02*
X231500000Y-19500000D01*
X231500000Y-19500000D02*
X231500000Y-34000000D01*
X232000000Y-19000000D02*
X238500000Y-19000000D01*
X238500000Y-19000000D02*
X238500000Y-15500000D01*
X238500000Y-15500000D02*
X278500000Y-15500000D01*
X278500000Y-15500000D02*
X278500000Y-19000000D01*
X238500000Y-34000000D02*
X235500000Y-34000000D01*
X264960000Y-50000000D02*
X264960000Y-54960000D01*
X241040000Y-55460000D02*
X241040000Y-50000000D01*
X241000000Y-55500000D02*
X241040000Y-55460000D01*
X264420000Y-55500000D02*
X241000000Y-55500000D01*
X264960000Y-54960000D02*
X264420000Y-55500000D01*
X278500000Y-19000000D02*
X278500000Y-26000000D01*
X278500000Y-26000000D02*
X278500000Y-33000000D01*
X278500000Y-33000000D02*
X278500000Y-40000000D01*
X278500000Y-40000000D02*
X278000000Y-40500000D01*
X278000000Y-40500000D02*
X278000000Y-47000000D01*
X278000000Y-47000000D02*
X265000000Y-47000000D01*
X265000000Y-47000000D02*
X264960000Y-47040000D01*
X264960000Y-47040000D02*
X264960000Y-50000000D01*
X267820000Y-19000000D02*
X275960000Y-19000000D01*
X267820000Y-26000000D02*
X275960000Y-26000000D01*
X267820000Y-33000000D02*
X275960000Y-33000000D01*
X267820000Y-40000000D02*
X275960000Y-40000000D01*
X233540000Y-36540000D02*
X233540000Y-22040000D01*
X234040000Y-21540000D02*
X238500000Y-21540000D01*
X233540000Y-22040000D02*
X234040000Y-21540000D01*
X238500000Y-50000000D02*
X233500000Y-50000000D01*
X233540000Y-36540000D02*
X238500000Y-36540000D01*
X233500000Y-36500000D02*
X233540000Y-36540000D01*
X233500000Y-50000000D02*
X233500000Y-36500000D01*
X267500000Y-50000000D02*
X267500000Y-57000000D01*
X238500000Y-57000000D02*
X238500000Y-50000000D01*
X267500000Y-57000000D02*
X238500000Y-57000000D01*
X262420000Y-50000000D02*
X262420000Y-53420000D01*
X243580000Y-53420000D02*
X243580000Y-50000000D01*
X243500000Y-53500000D02*
X243580000Y-53420000D01*
X262340000Y-53500000D02*
X243500000Y-53500000D01*
X262420000Y-53420000D02*
X262340000Y-53500000D01*
X238500000Y-39080000D02*
X242420000Y-39080000D01*
X242500000Y-19000000D02*
X247500000Y-19000000D01*
X242500000Y-39000000D02*
X242500000Y-19000000D01*
X242420000Y-39080000D02*
X242500000Y-39000000D01*
X259880000Y-50000000D02*
X259880000Y-19380000D01*
X259500000Y-19000000D02*
X247500000Y-19000000D01*
X259880000Y-19380000D02*
X259500000Y-19000000D01*
X257340000Y-50000000D02*
X257340000Y-26340000D01*
X257000000Y-26000000D02*
X247500000Y-26000000D01*
X257340000Y-26340000D02*
X257000000Y-26000000D01*
X238500000Y-29500000D02*
X238500000Y-24080000D01*
X247500000Y-33000000D02*
X247500000Y-29500000D01*
X247500000Y-29500000D02*
X244500000Y-29500000D01*
X254800000Y-50000000D02*
X254800000Y-33200000D01*
X254600000Y-33000000D02*
X247500000Y-33000000D01*
X254800000Y-33200000D02*
X254600000Y-33000000D01*
X252260000Y-50000000D02*
X252260000Y-40260000D01*
X252000000Y-40000000D02*
X247500000Y-40000000D01*
X252260000Y-40260000D02*
X252000000Y-40000000D01*
M02*
